<svg xmlns="http://www.w3.org/2000/svg" xmlns:xlink="http://www.w3.org/1999/xlink" width="500" zoomAndPan="magnify" viewBox="0 0 375 374.999991" height="500" preserveAspectRatio="xMidYMid meet" version="1.0"><defs><g/><clipPath id="36cfe931b1"><path d="M 49.625 128.023438 L 165 128.023438 L 165 247 L 49.625 247 Z M 49.625 128.023438 " clip-rule="nonzero"/></clipPath><clipPath id="229fd38b6f"><path d="M 270.351562 143.550781 L 287.601562 143.550781 L 287.601562 163.800781 L 270.351562 163.800781 Z M 270.351562 143.550781 " clip-rule="nonzero"/></clipPath><clipPath id="8db976fd43"><path d="M 272.382812 145.890625 L 285.882812 145.890625 L 285.882812 161.640625 L 272.382812 161.640625 Z M 272.382812 145.890625 " clip-rule="nonzero"/></clipPath><clipPath id="87012ab6a9"><path d="M 280.503906 149 L 308.253906 149 L 308.253906 181 L 280.503906 181 Z M 280.503906 149 " clip-rule="nonzero"/></clipPath><clipPath id="62b4887689"><path d="M 280.503906 148.921875 L 308.253906 148.921875 L 308.253906 181.171875 L 280.503906 181.171875 Z M 280.503906 148.921875 " clip-rule="nonzero"/></clipPath><clipPath id="9a17f39d5a"><path d="M 284.589844 152.417969 L 304.089844 152.417969 L 304.089844 174.917969 L 284.589844 174.917969 Z M 284.589844 152.417969 " clip-rule="nonzero"/></clipPath></defs><g clip-path="url(#36cfe931b1)"><path fill="#000000" d="M 93.976562 246.460938 C 95.179688 246.140625 96.296875 245.527344 97.210938 244.683594 L 120.65625 223.101562 L 151.722656 230.179688 C 154.527344 230.824219 157.59375 229.765625 159.410156 227.527344 C 161.273438 225.238281 161.664062 222.148438 160.433594 219.464844 L 147.152344 190.496094 L 163.484375 163.136719 C 164.996094 160.601562 164.941406 157.484375 163.335938 155.007812 C 161.734375 152.53125 158.917969 151.199219 155.980469 151.542969 L 124.328125 155.222656 L 103.351562 131.234375 C 101.414062 129.011719 98.433594 128.101562 95.578125 128.863281 C 92.765625 129.613281 90.582031 131.933594 90.007812 134.785156 L 83.726562 166.027344 L 54.429688 178.5625 C 51.714844 179.726562 49.929688 182.277344 49.773438 185.222656 C 49.609375 188.171875 51.109375 190.902344 53.683594 192.351562 L 81.460938 207.976562 L 84.328125 239.710938 C 84.59375 242.652344 86.46875 245.140625 89.226562 246.203125 C 90.75 246.792969 92.394531 246.882812 93.976562 246.460938 Z M 119.832031 220.011719 L 95.296875 242.605469 C 93.953125 243.835938 91.9375 244.21875 90.246094 243.5625 C 88.503906 242.890625 87.320312 241.320312 87.148438 239.460938 L 84.144531 206.242188 L 55.078125 189.886719 C 53.472656 188.984375 52.503906 187.214844 52.605469 185.378906 C 52.703125 183.511719 53.832031 181.898438 55.550781 181.164062 L 86.214844 168.042969 L 92.785156 135.339844 C 93.148438 133.539062 94.527344 132.070312 96.308594 131.597656 C 98.113281 131.117188 99.996094 131.691406 101.222656 133.09375 L 123.179688 158.203125 L 156.308594 154.351562 C 158.164062 154.136719 159.945312 154.976562 160.960938 156.542969 C 161.957031 158.089844 161.996094 160.105469 161.054688 161.683594 L 143.957031 190.324219 L 157.863281 220.644531 C 158.640625 222.339844 158.390625 224.292969 157.210938 225.742188 C 156.0625 227.160156 154.125 227.824219 152.355469 227.421875 Z M 119.832031 220.011719 " fill-opacity="1" fill-rule="nonzero"/></g><path fill="#000000" d="M 97.558594 136.300781 L 90.480469 171.511719 L 57.464844 185.640625 L 88.761719 203.253906 L 91.996094 239.019531 L 118.417969 214.695312 L 153.433594 222.675781 L 138.464844 190.027344 L 156.875 159.191406 L 121.199219 163.339844 Z M 97.558594 136.300781 " fill-opacity="1" fill-rule="nonzero"/><path stroke-linecap="butt" transform="matrix(0.892612, 0, 0, 0.892612, 63.0219, 158.043784)" fill="none" stroke-linejoin="miter" d="M 67.500247 10.908956 L 97.153386 10.908956 L 95.569201 18.497289 L 70.931189 18.497289 C 70.616103 18.497289 70.283511 18.624198 69.933415 18.882394 C 69.583319 19.127462 69.377638 19.429419 69.316371 19.779515 L 68.362359 24.304507 C 68.29234 24.62397 68.366735 24.925928 68.594298 25.210381 C 68.817484 25.49921 69.088808 25.643625 69.408271 25.643625 L 89.81012 25.643625 C 91.114228 25.643625 92.151388 26.033107 92.930352 26.816447 C 93.704939 27.595411 94.094421 28.584432 94.094421 29.787887 C 94.094421 30.164241 94.046283 30.549346 93.954383 30.938828 L 91.473077 42.706433 C 91.289276 43.691078 90.869161 44.583823 90.217107 45.380292 C 89.565053 46.172384 88.786089 46.806933 87.880216 47.288315 C 86.969966 47.765321 86.024707 48.001636 85.040061 48.001636 L 55.382547 48.001636 L 57.01487 40.422056 L 81.604743 40.422056 C 81.95484 40.422056 82.296183 40.286394 82.628775 40.015069 C 82.961366 39.743745 83.162671 39.450539 83.23269 39.131077 L 84.17795 34.606085 C 84.247969 34.255989 84.17795 33.945278 83.967892 33.673954 C 83.757834 33.402629 83.477758 33.266967 83.132038 33.266967 L 62.77395 33.266967 C 61.509228 33.266967 60.476445 32.868733 59.679976 32.081017 C 58.887884 31.288924 58.494026 30.286774 58.494026 29.074567 C 58.494026 28.912647 58.498402 28.737599 58.515907 28.553799 C 58.529035 28.35687 58.555292 28.168693 58.585926 27.980516 L 61.110994 16.204159 C 61.33418 15.219514 61.767424 14.331145 62.401973 13.539053 C 63.036522 12.738208 63.797981 12.103659 64.681974 11.631029 C 65.574719 11.149647 66.515602 10.908956 67.500247 10.908956 Z M 103.47262 10.908956 L 134.176047 10.908956 C 135.480155 10.908956 136.517315 11.30719 137.296278 12.108035 C 138.079618 12.900127 138.4691 13.902277 138.4691 15.110109 C 138.4691 15.267652 138.4691 15.438324 138.4691 15.635253 C 138.4691 15.819054 138.434091 16.011606 138.364071 16.204159 L 134.99002 32.124779 C 134.797467 33.109424 134.372976 34.002169 133.720922 34.803014 C 133.068868 35.595106 132.289904 36.229655 131.384031 36.711037 C 130.482533 37.183667 129.54165 37.419982 128.557005 37.419982 L 106.816038 37.419982 L 104.56667 48.001636 L 95.608587 48.001636 Z M 108.430856 29.831649 L 125.121687 29.831649 C 125.502416 29.831649 125.852512 29.717868 126.167599 29.481553 C 126.487062 29.245238 126.679615 28.934528 126.740881 28.553799 L 128.648905 19.543201 C 128.648905 19.481934 128.657657 19.429419 128.670786 19.381281 C 128.688291 19.328767 128.692667 19.285005 128.692667 19.254371 C 128.692667 18.934909 128.596391 18.676713 128.403838 18.475408 C 128.215661 18.26535 127.948713 18.160321 127.598617 18.160321 L 110.912162 18.160321 Z M 156.429029 10.908956 L 170.533525 10.908956 L 176.585812 48.001636 L 167.054446 48.001636 L 165.868495 40.995338 L 148.424958 40.995338 L 144.267567 48.001636 L 134.736201 48.001636 Z M 152.901811 33.415758 L 164.577516 33.415758 L 162.00431 18.020283 Z M 192.930923 10.908956 L 218.339146 10.908956 C 219.638878 10.908956 220.680414 11.30719 221.455001 12.108035 C 222.238341 12.900127 222.632199 13.902277 222.632199 15.110109 C 222.632199 15.267652 222.632199 15.438324 222.632199 15.635253 C 222.632199 15.819054 222.59719 16.011606 222.52717 16.204159 L 221.244943 22.116407 L 212.238722 22.116407 L 212.763866 19.779515 C 212.763866 19.713872 212.768242 19.661358 212.785747 19.61322 C 212.803252 19.569458 212.807628 19.530072 212.807628 19.499439 C 212.807628 18.82988 212.444403 18.497289 211.713578 18.497289 L 196.36624 18.497289 C 195.985511 18.497289 195.635415 18.615446 195.315952 18.856137 C 195.000866 19.092452 194.808313 19.398786 194.747046 19.779515 L 190.637793 39.131077 C 190.637793 39.16171 190.629041 39.205472 190.615912 39.257986 C 190.598407 39.306125 190.594031 39.358639 190.594031 39.424282 C 190.594031 40.089465 190.957256 40.422056 191.688081 40.422056 L 207.035419 40.422056 C 207.416148 40.422056 207.766244 40.303899 208.085707 40.063207 C 208.400793 39.822516 208.597722 39.511806 208.667742 39.131077 L 209.144748 36.851076 L 218.150969 36.851076 L 216.903752 42.706433 C 216.719952 43.691078 216.299836 44.583823 215.647782 45.380292 C 214.995728 46.172384 214.216765 46.806933 213.310891 47.288315 C 212.400641 47.765321 211.455382 48.001636 210.470736 48.001636 L 185.062513 48.001636 C 183.793415 48.001636 182.756255 47.603402 181.95541 46.81131 C 181.163318 46.014841 180.76946 45.030196 180.76946 43.857374 C 180.76946 43.467892 180.817598 43.082786 180.922627 42.706433 L 186.541669 16.204159 C 186.764855 15.219514 187.198099 14.331145 187.832648 13.539053 C 188.471574 12.738208 189.228656 12.103659 190.112649 11.631029 C 191.005394 11.149647 191.946277 10.908956 192.930923 10.908956 Z M 228.618842 10.908956 L 262.276205 10.908956 L 260.705149 18.497289 L 236.010246 18.497289 L 234.487328 25.643625 L 253.887027 25.643625 L 252.267833 33.266967 L 232.868134 33.266967 L 231.345216 40.422056 L 256.02699 40.422056 L 254.412171 48.001636 L 220.754809 48.001636 Z M 228.618842 10.908956 " stroke="#000000" stroke-width="12.51558" stroke-opacity="1" stroke-miterlimit="4"/><g fill="#000000" fill-opacity="1"><g transform="translate(109.144841, 200.889165)"><g><path d="M 14.125 -33.09375 L 40.59375 -33.09375 L 39.1875 -26.34375 L 17.1875 -26.34375 C 16.90625 -26.34375 16.609375 -26.226562 16.296875 -26 C 15.984375 -25.769531 15.800781 -25.5 15.75 -25.1875 L 14.890625 -21.140625 C 14.835938 -20.859375 14.910156 -20.585938 15.109375 -20.328125 C 15.304688 -20.078125 15.546875 -19.953125 15.828125 -19.953125 L 34.03125 -19.953125 C 35.195312 -19.953125 36.125 -19.601562 36.8125 -18.90625 C 37.507812 -18.21875 37.859375 -17.332031 37.859375 -16.25 C 37.859375 -15.914062 37.816406 -15.578125 37.734375 -15.234375 L 35.53125 -4.71875 C 35.351562 -3.84375 34.972656 -3.050781 34.390625 -2.34375 C 33.816406 -1.632812 33.125 -1.066406 32.3125 -0.640625 C 31.507812 -0.210938 30.664062 0 29.78125 0 L 3.3125 0 L 4.765625 -6.765625 L 26.71875 -6.765625 C 27.03125 -6.765625 27.332031 -6.882812 27.625 -7.125 C 27.925781 -7.363281 28.109375 -7.625 28.171875 -7.90625 L 29.015625 -11.953125 C 29.078125 -12.265625 29.015625 -12.539062 28.828125 -12.78125 C 28.640625 -13.019531 28.390625 -13.140625 28.078125 -13.140625 L 9.90625 -13.140625 C 8.78125 -13.140625 7.859375 -13.492188 7.140625 -14.203125 C 6.429688 -14.921875 6.078125 -15.816406 6.078125 -16.890625 C 6.078125 -17.035156 6.082031 -17.191406 6.09375 -17.359375 C 6.113281 -17.523438 6.140625 -17.695312 6.171875 -17.875 L 8.421875 -28.375 C 8.617188 -29.257812 9 -30.054688 9.5625 -30.765625 C 10.132812 -31.472656 10.816406 -32.035156 11.609375 -32.453125 C 12.410156 -32.878906 13.25 -33.09375 14.125 -33.09375 Z M 14.125 -33.09375 "/></g></g></g><g fill="#000000" fill-opacity="1"><g transform="translate(145.983259, 200.889165)"><g><path d="M 9.40625 -33.09375 L 36.796875 -33.09375 C 37.960938 -33.09375 38.890625 -32.738281 39.578125 -32.03125 C 40.273438 -31.320312 40.625 -30.429688 40.625 -29.359375 C 40.625 -29.210938 40.625 -29.054688 40.625 -28.890625 C 40.625 -28.722656 40.597656 -28.550781 40.546875 -28.375 L 37.53125 -14.171875 C 37.351562 -13.285156 36.972656 -12.488281 36.390625 -11.78125 C 35.816406 -11.070312 35.125 -10.503906 34.3125 -10.078125 C 33.5 -9.660156 32.65625 -9.453125 31.78125 -9.453125 L 12.375 -9.453125 L 10.375 0 L 2.375 0 Z M 13.828125 -16.203125 L 28.71875 -16.203125 C 29.0625 -16.203125 29.375 -16.304688 29.65625 -16.515625 C 29.9375 -16.734375 30.109375 -17.015625 30.171875 -17.359375 L 31.875 -25.40625 C 31.875 -25.457031 31.878906 -25.503906 31.890625 -25.546875 C 31.898438 -25.585938 31.90625 -25.625 31.90625 -25.65625 C 31.90625 -25.9375 31.820312 -26.171875 31.65625 -26.359375 C 31.488281 -26.546875 31.25 -26.640625 30.9375 -26.640625 L 16.046875 -26.640625 Z M 13.828125 -16.203125 "/></g></g></g><g fill="#000000" fill-opacity="1"><g transform="translate(182.821677, 200.889165)"><g><path d="M 19.828125 -33.09375 L 32.421875 -33.09375 L 37.828125 0 L 29.3125 0 L 28.25 -6.25 L 12.671875 -6.25 L 8.984375 0 L 0.46875 0 Z M 16.671875 -13.015625 L 27.109375 -13.015625 L 24.8125 -26.765625 Z M 16.671875 -13.015625 "/></g></g></g><g fill="#000000" fill-opacity="1"><g transform="translate(221.106408, 200.889165)"><g><path d="M 14.125 -33.09375 L 36.796875 -33.09375 C 37.960938 -33.09375 38.890625 -32.738281 39.578125 -32.03125 C 40.273438 -31.320312 40.625 -30.429688 40.625 -29.359375 C 40.625 -29.210938 40.625 -29.054688 40.625 -28.890625 C 40.625 -28.722656 40.597656 -28.550781 40.546875 -28.375 L 39.40625 -23.109375 L 31.359375 -23.109375 L 31.828125 -25.1875 C 31.828125 -25.238281 31.832031 -25.285156 31.84375 -25.328125 C 31.863281 -25.378906 31.875 -25.414062 31.875 -25.4375 C 31.875 -26.039062 31.546875 -26.34375 30.890625 -26.34375 L 17.1875 -26.34375 C 16.84375 -26.34375 16.53125 -26.234375 16.25 -26.015625 C 15.96875 -25.804688 15.800781 -25.53125 15.75 -25.1875 L 12.078125 -7.90625 C 12.078125 -7.882812 12.070312 -7.851562 12.0625 -7.8125 C 12.050781 -7.769531 12.046875 -7.71875 12.046875 -7.65625 C 12.046875 -7.0625 12.367188 -6.765625 13.015625 -6.765625 L 26.71875 -6.765625 C 27.0625 -6.765625 27.375 -6.867188 27.65625 -7.078125 C 27.9375 -7.296875 28.109375 -7.570312 28.171875 -7.90625 L 28.59375 -9.953125 L 36.640625 -9.953125 L 35.53125 -4.71875 C 35.351562 -3.84375 34.972656 -3.050781 34.390625 -2.34375 C 33.816406 -1.632812 33.125 -1.066406 32.3125 -0.640625 C 31.507812 -0.210938 30.664062 0 29.78125 0 L 7.109375 0 C 5.972656 0 5.050781 -0.351562 4.34375 -1.0625 C 3.632812 -1.769531 3.28125 -2.648438 3.28125 -3.703125 C 3.28125 -4.046875 3.320312 -4.382812 3.40625 -4.71875 L 8.421875 -28.375 C 8.617188 -29.257812 9 -30.054688 9.5625 -30.765625 C 10.132812 -31.472656 10.816406 -32.035156 11.609375 -32.453125 C 12.410156 -32.878906 13.25 -33.09375 14.125 -33.09375 Z M 14.125 -33.09375 "/></g></g></g><g fill="#000000" fill-opacity="1"><g transform="translate(257.689598, 200.889165)"><g><path d="M 9.40625 -33.09375 L 39.4375 -33.09375 L 38.03125 -26.34375 L 16 -26.34375 L 14.640625 -19.953125 L 31.953125 -19.953125 L 30.5 -13.140625 L 13.1875 -13.140625 L 11.828125 -6.765625 L 33.875 -6.765625 L 32.421875 0 L 2.375 0 Z M 9.40625 -33.09375 "/></g></g></g><path stroke-linecap="butt" transform="matrix(0.892612, 0, 0, 0.892612, 63.0219, 158.043784)" fill="none" stroke-linejoin="miter" d="M 67.500247 10.908956 L 97.153386 10.908956 L 95.569201 18.497289 L 70.931189 18.497289 C 70.616103 18.497289 70.283511 18.624198 69.933415 18.882394 C 69.583319 19.127462 69.377638 19.429419 69.316371 19.779515 L 68.362359 24.304507 C 68.29234 24.62397 68.366735 24.925928 68.594298 25.210381 C 68.817484 25.49921 69.088808 25.643625 69.408271 25.643625 L 89.81012 25.643625 C 91.114228 25.643625 92.151388 26.033107 92.930352 26.816447 C 93.704939 27.595411 94.094421 28.584432 94.094421 29.787887 C 94.094421 30.164241 94.046283 30.549346 93.954383 30.938828 L 91.473077 42.706433 C 91.289276 43.691078 90.869161 44.583823 90.217107 45.380292 C 89.565053 46.172384 88.786089 46.806933 87.880216 47.288315 C 86.969966 47.765321 86.024707 48.001636 85.040061 48.001636 L 55.382547 48.001636 L 57.01487 40.422056 L 81.604743 40.422056 C 81.95484 40.422056 82.296183 40.286394 82.628775 40.015069 C 82.961366 39.743745 83.162671 39.450539 83.23269 39.131077 L 84.17795 34.606085 C 84.247969 34.255989 84.17795 33.945278 83.967892 33.673954 C 83.757834 33.402629 83.477758 33.266967 83.132038 33.266967 L 62.77395 33.266967 C 61.509228 33.266967 60.476445 32.868733 59.679976 32.081017 C 58.887884 31.288924 58.494026 30.286774 58.494026 29.074567 C 58.494026 28.912647 58.498402 28.737599 58.515907 28.553799 C 58.529035 28.35687 58.555292 28.168693 58.585926 27.980516 L 61.110994 16.204159 C 61.33418 15.219514 61.767424 14.331145 62.401973 13.539053 C 63.036522 12.738208 63.797981 12.103659 64.681974 11.631029 C 65.574719 11.149647 66.515602 10.908956 67.500247 10.908956 Z M 103.47262 10.908956 L 134.176047 10.908956 C 135.480155 10.908956 136.517315 11.30719 137.296278 12.108035 C 138.079618 12.900127 138.4691 13.902277 138.4691 15.110109 C 138.4691 15.267652 138.4691 15.438324 138.4691 15.635253 C 138.4691 15.819054 138.434091 16.011606 138.364071 16.204159 L 134.99002 32.124779 C 134.797467 33.109424 134.372976 34.002169 133.720922 34.803014 C 133.068868 35.595106 132.289904 36.229655 131.384031 36.711037 C 130.482533 37.183667 129.54165 37.419982 128.557005 37.419982 L 106.816038 37.419982 L 104.56667 48.001636 L 95.608587 48.001636 Z M 108.430856 29.831649 L 125.121687 29.831649 C 125.502416 29.831649 125.852512 29.717868 126.167599 29.481553 C 126.487062 29.245238 126.679615 28.934528 126.740881 28.553799 L 128.648905 19.543201 C 128.648905 19.481934 128.657657 19.429419 128.670786 19.381281 C 128.688291 19.328767 128.692667 19.285005 128.692667 19.254371 C 128.692667 18.934909 128.596391 18.676713 128.403838 18.475408 C 128.215661 18.26535 127.948713 18.160321 127.598617 18.160321 L 110.912162 18.160321 Z M 156.429029 10.908956 L 170.533525 10.908956 L 176.585812 48.001636 L 167.054446 48.001636 L 165.868495 40.995338 L 148.424958 40.995338 L 144.267567 48.001636 L 134.736201 48.001636 Z M 152.901811 33.415758 L 164.577516 33.415758 L 162.00431 18.020283 Z M 192.930923 10.908956 L 218.339146 10.908956 C 219.638878 10.908956 220.680414 11.30719 221.455001 12.108035 C 222.238341 12.900127 222.632199 13.902277 222.632199 15.110109 C 222.632199 15.267652 222.632199 15.438324 222.632199 15.635253 C 222.632199 15.819054 222.59719 16.011606 222.52717 16.204159 L 221.244943 22.116407 L 212.238722 22.116407 L 212.763866 19.779515 C 212.763866 19.713872 212.768242 19.661358 212.785747 19.61322 C 212.803252 19.569458 212.807628 19.530072 212.807628 19.499439 C 212.807628 18.82988 212.444403 18.497289 211.713578 18.497289 L 196.36624 18.497289 C 195.985511 18.497289 195.635415 18.615446 195.315952 18.856137 C 195.000866 19.092452 194.808313 19.398786 194.747046 19.779515 L 190.637793 39.131077 C 190.637793 39.16171 190.629041 39.205472 190.615912 39.257986 C 190.598407 39.306125 190.594031 39.358639 190.594031 39.424282 C 190.594031 40.089465 190.957256 40.422056 191.688081 40.422056 L 207.035419 40.422056 C 207.416148 40.422056 207.766244 40.303899 208.085707 40.063207 C 208.400793 39.822516 208.597722 39.511806 208.667742 39.131077 L 209.144748 36.851076 L 218.150969 36.851076 L 216.903752 42.706433 C 216.719952 43.691078 216.299836 44.583823 215.647782 45.380292 C 214.995728 46.172384 214.216765 46.806933 213.310891 47.288315 C 212.400641 47.765321 211.455382 48.001636 210.470736 48.001636 L 185.062513 48.001636 C 183.793415 48.001636 182.756255 47.603402 181.95541 46.81131 C 181.163318 46.014841 180.76946 45.030196 180.76946 43.857374 C 180.76946 43.467892 180.817598 43.082786 180.922627 42.706433 L 186.541669 16.204159 C 186.764855 15.219514 187.198099 14.331145 187.832648 13.539053 C 188.471574 12.738208 189.228656 12.103659 190.112649 11.631029 C 191.005394 11.149647 191.946277 10.908956 192.930923 10.908956 Z M 228.618842 10.908956 L 262.276205 10.908956 L 260.705149 18.497289 L 236.010246 18.497289 L 234.487328 25.643625 L 253.887027 25.643625 L 252.267833 33.266967 L 232.868134 33.266967 L 231.345216 40.422056 L 256.02699 40.422056 L 254.412171 48.001636 L 220.754809 48.001636 Z M 228.618842 10.908956 " stroke="#ffffff" stroke-width="5.9598" stroke-opacity="1" stroke-miterlimit="4"/><g fill="#000000" fill-opacity="1"><g transform="translate(109.144841, 200.889165)"><g><path d="M 14.125 -33.09375 L 40.59375 -33.09375 L 39.1875 -26.34375 L 17.1875 -26.34375 C 16.90625 -26.34375 16.609375 -26.226562 16.296875 -26 C 15.984375 -25.769531 15.800781 -25.5 15.75 -25.1875 L 14.890625 -21.140625 C 14.835938 -20.859375 14.910156 -20.585938 15.109375 -20.328125 C 15.304688 -20.078125 15.546875 -19.953125 15.828125 -19.953125 L 34.03125 -19.953125 C 35.195312 -19.953125 36.125 -19.601562 36.8125 -18.90625 C 37.507812 -18.21875 37.859375 -17.332031 37.859375 -16.25 C 37.859375 -15.914062 37.816406 -15.578125 37.734375 -15.234375 L 35.53125 -4.71875 C 35.351562 -3.84375 34.972656 -3.050781 34.390625 -2.34375 C 33.816406 -1.632812 33.125 -1.066406 32.3125 -0.640625 C 31.507812 -0.210938 30.664062 0 29.78125 0 L 3.3125 0 L 4.765625 -6.765625 L 26.71875 -6.765625 C 27.03125 -6.765625 27.332031 -6.882812 27.625 -7.125 C 27.925781 -7.363281 28.109375 -7.625 28.171875 -7.90625 L 29.015625 -11.953125 C 29.078125 -12.265625 29.015625 -12.539062 28.828125 -12.78125 C 28.640625 -13.019531 28.390625 -13.140625 28.078125 -13.140625 L 9.90625 -13.140625 C 8.78125 -13.140625 7.859375 -13.492188 7.140625 -14.203125 C 6.429688 -14.921875 6.078125 -15.816406 6.078125 -16.890625 C 6.078125 -17.035156 6.082031 -17.191406 6.09375 -17.359375 C 6.113281 -17.523438 6.140625 -17.695312 6.171875 -17.875 L 8.421875 -28.375 C 8.617188 -29.257812 9 -30.054688 9.5625 -30.765625 C 10.132812 -31.472656 10.816406 -32.035156 11.609375 -32.453125 C 12.410156 -32.878906 13.25 -33.09375 14.125 -33.09375 Z M 14.125 -33.09375 "/></g></g></g><g fill="#000000" fill-opacity="1"><g transform="translate(145.983259, 200.889165)"><g><path d="M 9.40625 -33.09375 L 36.796875 -33.09375 C 37.960938 -33.09375 38.890625 -32.738281 39.578125 -32.03125 C 40.273438 -31.320312 40.625 -30.429688 40.625 -29.359375 C 40.625 -29.210938 40.625 -29.054688 40.625 -28.890625 C 40.625 -28.722656 40.597656 -28.550781 40.546875 -28.375 L 37.53125 -14.171875 C 37.351562 -13.285156 36.972656 -12.488281 36.390625 -11.78125 C 35.816406 -11.070312 35.125 -10.503906 34.3125 -10.078125 C 33.5 -9.660156 32.65625 -9.453125 31.78125 -9.453125 L 12.375 -9.453125 L 10.375 0 L 2.375 0 Z M 13.828125 -16.203125 L 28.71875 -16.203125 C 29.0625 -16.203125 29.375 -16.304688 29.65625 -16.515625 C 29.9375 -16.734375 30.109375 -17.015625 30.171875 -17.359375 L 31.875 -25.40625 C 31.875 -25.457031 31.878906 -25.503906 31.890625 -25.546875 C 31.898438 -25.585938 31.90625 -25.625 31.90625 -25.65625 C 31.90625 -25.9375 31.820312 -26.171875 31.65625 -26.359375 C 31.488281 -26.546875 31.25 -26.640625 30.9375 -26.640625 L 16.046875 -26.640625 Z M 13.828125 -16.203125 "/></g></g></g><g fill="#000000" fill-opacity="1"><g transform="translate(182.821677, 200.889165)"><g><path d="M 19.828125 -33.09375 L 32.421875 -33.09375 L 37.828125 0 L 29.3125 0 L 28.25 -6.25 L 12.671875 -6.25 L 8.984375 0 L 0.46875 0 Z M 16.671875 -13.015625 L 27.109375 -13.015625 L 24.8125 -26.765625 Z M 16.671875 -13.015625 "/></g></g></g><g fill="#000000" fill-opacity="1"><g transform="translate(221.106408, 200.889165)"><g><path d="M 14.125 -33.09375 L 36.796875 -33.09375 C 37.960938 -33.09375 38.890625 -32.738281 39.578125 -32.03125 C 40.273438 -31.320312 40.625 -30.429688 40.625 -29.359375 C 40.625 -29.210938 40.625 -29.054688 40.625 -28.890625 C 40.625 -28.722656 40.597656 -28.550781 40.546875 -28.375 L 39.40625 -23.109375 L 31.359375 -23.109375 L 31.828125 -25.1875 C 31.828125 -25.238281 31.832031 -25.285156 31.84375 -25.328125 C 31.863281 -25.378906 31.875 -25.414062 31.875 -25.4375 C 31.875 -26.039062 31.546875 -26.34375 30.890625 -26.34375 L 17.1875 -26.34375 C 16.84375 -26.34375 16.53125 -26.234375 16.25 -26.015625 C 15.96875 -25.804688 15.800781 -25.53125 15.75 -25.1875 L 12.078125 -7.90625 C 12.078125 -7.882812 12.070312 -7.851562 12.0625 -7.8125 C 12.050781 -7.769531 12.046875 -7.71875 12.046875 -7.65625 C 12.046875 -7.0625 12.367188 -6.765625 13.015625 -6.765625 L 26.71875 -6.765625 C 27.0625 -6.765625 27.375 -6.867188 27.65625 -7.078125 C 27.9375 -7.296875 28.109375 -7.570312 28.171875 -7.90625 L 28.59375 -9.953125 L 36.640625 -9.953125 L 35.53125 -4.71875 C 35.351562 -3.84375 34.972656 -3.050781 34.390625 -2.34375 C 33.816406 -1.632812 33.125 -1.066406 32.3125 -0.640625 C 31.507812 -0.210938 30.664062 0 29.78125 0 L 7.109375 0 C 5.972656 0 5.050781 -0.351562 4.34375 -1.0625 C 3.632812 -1.769531 3.28125 -2.648438 3.28125 -3.703125 C 3.28125 -4.046875 3.320312 -4.382812 3.40625 -4.71875 L 8.421875 -28.375 C 8.617188 -29.257812 9 -30.054688 9.5625 -30.765625 C 10.132812 -31.472656 10.816406 -32.035156 11.609375 -32.453125 C 12.410156 -32.878906 13.25 -33.09375 14.125 -33.09375 Z M 14.125 -33.09375 "/></g></g></g><g fill="#000000" fill-opacity="1"><g transform="translate(257.689598, 200.889165)"><g><path d="M 9.40625 -33.09375 L 39.4375 -33.09375 L 38.03125 -26.34375 L 16 -26.34375 L 14.640625 -19.953125 L 31.953125 -19.953125 L 30.5 -13.140625 L 13.1875 -13.140625 L 11.828125 -6.765625 L 33.875 -6.765625 L 32.421875 0 L 2.375 0 Z M 9.40625 -33.09375 "/></g></g></g><g clip-path="url(#229fd38b6f)"><path fill="#ffffff" d="M 279.136719 143.660156 L 279.359375 144.539062 C 280.453125 148.804688 283.621094 152.234375 287.789062 153.65625 C 283.621094 155.082031 280.453125 158.511719 279.359375 162.777344 L 279.136719 163.65625 L 278.910156 162.777344 C 277.820312 158.511719 274.648438 155.082031 270.480469 153.65625 C 274.648438 152.234375 277.820312 148.804688 278.910156 144.539062 Z M 279.136719 143.660156 " fill-opacity="1" fill-rule="nonzero"/><path fill="#000000" d="M 279.136719 163.765625 C 279.085938 163.765625 279.039062 163.730469 279.027344 163.683594 L 278.804688 162.804688 C 278.273438 160.726562 277.222656 158.800781 275.769531 157.226562 C 274.3125 155.652344 272.472656 154.457031 270.445312 153.761719 C 270.402344 153.746094 270.371094 153.707031 270.371094 153.65625 C 270.371094 153.609375 270.402344 153.566406 270.445312 153.550781 C 272.472656 152.859375 274.3125 151.664062 275.769531 150.089844 C 277.222656 148.515625 278.273438 146.585938 278.804688 144.511719 L 279.027344 143.632812 C 279.039062 143.582031 279.085938 143.550781 279.136719 143.550781 C 279.1875 143.550781 279.230469 143.582031 279.242188 143.632812 L 279.46875 144.511719 C 280 146.585938 281.046875 148.515625 282.503906 150.089844 C 283.957031 151.660156 285.796875 152.859375 287.824219 153.550781 C 287.871094 153.566406 287.898438 153.609375 287.898438 153.65625 C 287.898438 153.707031 287.871094 153.746094 287.824219 153.761719 C 285.796875 154.457031 283.957031 155.652344 282.503906 157.226562 C 281.050781 158.800781 280 160.726562 279.46875 162.804688 L 279.242188 163.683594 C 279.230469 163.730469 279.1875 163.765625 279.136719 163.765625 Z M 270.8125 153.65625 C 272.757812 154.375 274.523438 155.550781 275.929688 157.074219 C 277.410156 158.675781 278.476562 160.636719 279.019531 162.75 L 279.136719 163.207031 L 279.253906 162.75 C 279.792969 160.636719 280.859375 158.675781 282.339844 157.074219 C 283.75 155.550781 285.511719 154.375 287.457031 153.65625 C 285.511719 152.941406 283.75 151.761719 282.339844 150.238281 C 280.859375 148.640625 279.792969 146.679688 279.253906 144.566406 L 279.136719 144.109375 L 279.019531 144.566406 C 278.476562 146.679688 277.410156 148.640625 275.929688 150.238281 C 274.523438 151.761719 272.757812 152.941406 270.8125 153.65625 Z M 270.8125 153.65625 " fill-opacity="1" fill-rule="nonzero"/></g><path stroke-linecap="butt" transform="matrix(0.406081, 0, 0, 0.406081, 72.925416, 205.592185)" fill="none" stroke-linejoin="miter" d="M 240.389204 10.912231 L 249.354466 10.912231 L 243.111488 40.424488 L 267.804437 40.424488 L 266.178761 48.00456 L 232.520551 48.00456 Z M 288.582297 10.912231 L 302.684308 10.912231 L 308.734898 48.00456 L 299.211712 48.00456 L 298.018909 40.992032 L 280.578973 40.992032 L 276.423401 48.00456 L 266.890595 48.00456 Z M 285.051985 33.42158 L 296.729912 33.42158 L 294.151918 18.020953 Z M 319.787566 10.912231 L 328.752828 10.912231 L 341.815946 34.373899 L 346.779546 10.912231 L 355.783285 10.912231 L 347.914632 48.00456 L 338.910893 48.00456 L 325.895872 24.552512 L 320.884175 48.00456 L 311.918913 48.00456 Z M 368.452008 18.501922 L 363.77699 40.424488 L 379.12952 40.424488 C 379.860593 40.424488 380.543569 40.155146 381.178448 39.606841 C 381.813327 39.068156 382.207722 38.433277 382.371251 37.702204 L 385.843847 21.204967 C 385.882325 21.118393 385.891944 21.01258 385.891944 20.906767 C 385.891944 20.791334 385.891944 20.685521 385.891944 20.589327 C 385.891944 19.983306 385.699557 19.483098 385.324401 19.088704 C 384.939626 18.694309 384.439418 18.501922 383.794919 18.501922 Z M 361.054705 10.912231 L 389.095198 10.912231 C 390.990216 10.912231 392.548555 11.518252 393.760597 12.749533 C 394.972639 13.971194 395.57866 15.491056 395.57866 17.299499 C 395.57866 17.520745 395.559421 17.780468 395.530563 18.06905 C 395.501705 18.357631 395.443988 18.617354 395.376653 18.867458 L 390.855544 40.039713 C 390.566963 41.501859 389.932084 42.829333 388.941288 44.022137 C 387.960111 45.21494 386.786547 46.176878 385.439833 46.907951 C 384.09312 47.639023 382.688691 48.00456 381.226545 48.00456 L 353.186053 48.00456 Z M 361.054705 10.912231 " stroke="#000000" stroke-width="12.51558" stroke-opacity="1" stroke-miterlimit="4"/><g fill="#000000" fill-opacity="1"><g transform="translate(166.267005, 225.084086)"><g><path d="M 4.28125 -15.0625 L 7.921875 -15.0625 L 5.375 -3.078125 L 15.40625 -3.078125 L 14.75 0 L 1.078125 0 Z M 4.28125 -15.0625 "/></g></g></g><g fill="#000000" fill-opacity="1"><g transform="translate(181.090892, 225.084086)"><g><path d="M 9.015625 -15.0625 L 14.75 -15.0625 L 17.203125 0 L 13.34375 0 L 12.859375 -2.84375 L 5.765625 -2.84375 L 4.078125 0 L 0.21875 0 Z M 7.59375 -5.921875 L 12.328125 -5.921875 L 11.28125 -12.171875 Z M 7.59375 -5.921875 "/></g></g></g><g fill="#000000" fill-opacity="1"><g transform="translate(198.50799, 225.084086)"><g><path d="M 4.28125 -15.0625 L 7.921875 -15.0625 L 13.21875 -5.53125 L 15.234375 -15.0625 L 18.890625 -15.0625 L 15.703125 0 L 12.046875 0 L 6.75 -9.53125 L 4.71875 0 L 1.078125 0 Z M 4.28125 -15.0625 "/></g></g></g><g fill="#000000" fill-opacity="1"><g transform="translate(215.267108, 225.084086)"><g><path d="M 7.28125 -11.984375 L 5.375 -3.078125 L 11.609375 -3.078125 C 11.910156 -3.078125 12.1875 -3.1875 12.4375 -3.40625 C 12.695312 -3.625 12.863281 -3.882812 12.9375 -4.1875 L 14.34375 -10.875 C 14.351562 -10.914062 14.359375 -10.957031 14.359375 -11 C 14.359375 -11.050781 14.359375 -11.09375 14.359375 -11.125 C 14.359375 -11.375 14.28125 -11.578125 14.125 -11.734375 C 13.976562 -11.898438 13.773438 -11.984375 13.515625 -11.984375 Z M 4.28125 -15.0625 L 15.65625 -15.0625 C 16.4375 -15.0625 17.070312 -14.8125 17.5625 -14.3125 C 18.050781 -13.820312 18.296875 -13.207031 18.296875 -12.46875 C 18.296875 -12.375 18.285156 -12.269531 18.265625 -12.15625 C 18.253906 -12.039062 18.238281 -11.929688 18.21875 -11.828125 L 16.375 -3.234375 C 16.257812 -2.640625 16 -2.097656 15.59375 -1.609375 C 15.195312 -1.128906 14.722656 -0.738281 14.171875 -0.4375 C 13.628906 -0.144531 13.0625 0 12.46875 0 L 1.078125 0 Z M 4.28125 -15.0625 "/></g></g></g><path stroke-linecap="butt" transform="matrix(0.406081, 0, 0, 0.406081, 72.925416, 205.592185)" fill="none" stroke-linejoin="miter" d="M 240.389204 10.912231 L 249.354466 10.912231 L 243.111488 40.424488 L 267.804437 40.424488 L 266.178761 48.00456 L 232.520551 48.00456 Z M 288.582297 10.912231 L 302.684308 10.912231 L 308.734898 48.00456 L 299.211712 48.00456 L 298.018909 40.992032 L 280.578973 40.992032 L 276.423401 48.00456 L 266.890595 48.00456 Z M 285.051985 33.42158 L 296.729912 33.42158 L 294.151918 18.020953 Z M 319.787566 10.912231 L 328.752828 10.912231 L 341.815946 34.373899 L 346.779546 10.912231 L 355.783285 10.912231 L 347.914632 48.00456 L 338.910893 48.00456 L 325.895872 24.552512 L 320.884175 48.00456 L 311.918913 48.00456 Z M 368.452008 18.501922 L 363.77699 40.424488 L 379.12952 40.424488 C 379.860593 40.424488 380.543569 40.155146 381.178448 39.606841 C 381.813327 39.068156 382.207722 38.433277 382.371251 37.702204 L 385.843847 21.204967 C 385.882325 21.118393 385.891944 21.01258 385.891944 20.906767 C 385.891944 20.791334 385.891944 20.685521 385.891944 20.589327 C 385.891944 19.983306 385.699557 19.483098 385.324401 19.088704 C 384.939626 18.694309 384.439418 18.501922 383.794919 18.501922 Z M 361.054705 10.912231 L 389.095198 10.912231 C 390.990216 10.912231 392.548555 11.518252 393.760597 12.749533 C 394.972639 13.971194 395.57866 15.491056 395.57866 17.299499 C 395.57866 17.520745 395.559421 17.780468 395.530563 18.06905 C 395.501705 18.357631 395.443988 18.617354 395.376653 18.867458 L 390.855544 40.039713 C 390.566963 41.501859 389.932084 42.829333 388.941288 44.022137 C 387.960111 45.21494 386.786547 46.176878 385.439833 46.907951 C 384.09312 47.639023 382.688691 48.00456 381.226545 48.00456 L 353.186053 48.00456 Z M 361.054705 10.912231 " stroke="#ffffff" stroke-width="5.9598" stroke-opacity="1" stroke-miterlimit="4"/><g fill="#000000" fill-opacity="1"><g transform="translate(166.267005, 225.084086)"><g><path d="M 4.28125 -15.0625 L 7.921875 -15.0625 L 5.375 -3.078125 L 15.40625 -3.078125 L 14.75 0 L 1.078125 0 Z M 4.28125 -15.0625 "/></g></g></g><g fill="#000000" fill-opacity="1"><g transform="translate(181.090892, 225.084086)"><g><path d="M 9.015625 -15.0625 L 14.75 -15.0625 L 17.203125 0 L 13.34375 0 L 12.859375 -2.84375 L 5.765625 -2.84375 L 4.078125 0 L 0.21875 0 Z M 7.59375 -5.921875 L 12.328125 -5.921875 L 11.28125 -12.171875 Z M 7.59375 -5.921875 "/></g></g></g><g fill="#000000" fill-opacity="1"><g transform="translate(198.50799, 225.084086)"><g><path d="M 4.28125 -15.0625 L 7.921875 -15.0625 L 13.21875 -5.53125 L 15.234375 -15.0625 L 18.890625 -15.0625 L 15.703125 0 L 12.046875 0 L 6.75 -9.53125 L 4.71875 0 L 1.078125 0 Z M 4.28125 -15.0625 "/></g></g></g><g fill="#000000" fill-opacity="1"><g transform="translate(215.267108, 225.084086)"><g><path d="M 7.28125 -11.984375 L 5.375 -3.078125 L 11.609375 -3.078125 C 11.910156 -3.078125 12.1875 -3.1875 12.4375 -3.40625 C 12.695312 -3.625 12.863281 -3.882812 12.9375 -4.1875 L 14.34375 -10.875 C 14.351562 -10.914062 14.359375 -10.957031 14.359375 -11 C 14.359375 -11.050781 14.359375 -11.09375 14.359375 -11.125 C 14.359375 -11.375 14.28125 -11.578125 14.125 -11.734375 C 13.976562 -11.898438 13.773438 -11.984375 13.515625 -11.984375 Z M 4.28125 -15.0625 L 15.65625 -15.0625 C 16.4375 -15.0625 17.070312 -14.8125 17.5625 -14.3125 C 18.050781 -13.820312 18.296875 -13.207031 18.296875 -12.46875 C 18.296875 -12.375 18.285156 -12.269531 18.265625 -12.15625 C 18.253906 -12.039062 18.238281 -11.929688 18.21875 -11.828125 L 16.375 -3.234375 C 16.257812 -2.640625 16 -2.097656 15.59375 -1.609375 C 15.195312 -1.128906 14.722656 -0.738281 14.171875 -0.4375 C 13.628906 -0.144531 13.0625 0 12.46875 0 L 1.078125 0 Z M 4.28125 -15.0625 "/></g></g></g><g clip-path="url(#8db976fd43)"><path fill="#000000" d="M 279.132812 145.972656 L 279.304688 146.648438 C 280.144531 149.929688 282.582031 152.5625 285.785156 153.660156 C 282.582031 154.753906 280.144531 157.386719 279.304688 160.667969 L 279.132812 161.34375 L 278.960938 160.667969 C 278.121094 157.386719 275.683594 154.753906 272.480469 153.660156 C 275.683594 152.5625 278.121094 149.929688 278.960938 146.648438 Z M 279.132812 145.972656 " fill-opacity="1" fill-rule="nonzero"/><path fill="#000000" d="M 279.132812 161.429688 C 279.09375 161.429688 279.0625 161.402344 279.050781 161.363281 L 278.878906 160.6875 C 278.46875 159.09375 277.664062 157.609375 276.546875 156.402344 C 275.425781 155.191406 274.011719 154.273438 272.453125 153.738281 C 272.417969 153.726562 272.394531 153.695312 272.394531 153.65625 C 272.394531 153.621094 272.417969 153.589844 272.453125 153.578125 C 274.011719 153.042969 275.425781 152.125 276.546875 150.914062 C 277.664062 149.707031 278.46875 148.222656 278.878906 146.628906 L 279.050781 145.953125 C 279.0625 145.914062 279.09375 145.886719 279.132812 145.886719 C 279.171875 145.886719 279.207031 145.914062 279.214844 145.953125 L 279.390625 146.628906 C 279.796875 148.222656 280.605469 149.707031 281.722656 150.914062 C 282.839844 152.125 284.253906 153.042969 285.8125 153.578125 C 285.847656 153.589844 285.871094 153.621094 285.871094 153.65625 C 285.871094 153.695312 285.847656 153.726562 285.8125 153.738281 C 284.253906 154.273438 282.839844 155.191406 281.722656 156.402344 C 280.605469 157.609375 279.796875 159.09375 279.390625 160.6875 L 279.214844 161.363281 C 279.207031 161.402344 279.171875 161.429688 279.132812 161.429688 Z M 272.738281 153.660156 C 274.230469 154.210938 275.589844 155.113281 276.671875 156.285156 C 277.808594 157.515625 278.628906 159.023438 279.042969 160.648438 L 279.132812 161 L 279.222656 160.648438 C 279.640625 159.023438 280.460938 157.515625 281.597656 156.285156 C 282.679688 155.113281 284.035156 154.210938 285.53125 153.660156 C 284.035156 153.105469 282.679688 152.203125 281.597656 151.03125 C 280.460938 149.800781 279.640625 148.292969 279.222656 146.671875 L 279.132812 146.320312 L 279.042969 146.671875 C 278.628906 148.292969 277.808594 149.800781 276.671875 151.03125 C 275.589844 152.203125 274.230469 153.105469 272.738281 153.660156 Z M 272.738281 153.660156 " fill-opacity="1" fill-rule="nonzero"/></g><g clip-path="url(#87012ab6a9)"><path fill="#ffffff" d="M 294.453125 149.097656 L 294.8125 150.492188 C 296.546875 157.273438 301.582031 162.71875 308.207031 164.980469 C 301.582031 167.242188 296.546875 172.691406 294.8125 179.46875 L 294.453125 180.867188 L 294.097656 179.46875 C 292.363281 172.691406 287.324219 167.242188 280.703125 164.980469 C 287.328125 162.71875 292.363281 157.273438 294.097656 150.492188 Z M 294.453125 149.097656 " fill-opacity="1" fill-rule="nonzero"/></g><g clip-path="url(#62b4887689)"><path fill="#000000" d="M 294.453125 181.042969 C 294.375 181.042969 294.304688 180.988281 294.285156 180.910156 L 293.925781 179.515625 C 293.082031 176.214844 291.414062 173.152344 289.105469 170.652344 C 286.792969 168.152344 283.867188 166.25 280.648438 165.148438 C 280.574219 165.125 280.527344 165.054688 280.527344 164.980469 C 280.527344 164.90625 280.574219 164.839844 280.648438 164.8125 C 283.867188 163.710938 286.792969 161.808594 289.105469 159.308594 C 291.414062 156.808594 293.082031 153.746094 293.925781 150.445312 L 294.285156 149.050781 C 294.304688 148.972656 294.375 148.917969 294.453125 148.917969 C 294.535156 148.917969 294.605469 148.972656 294.625 149.050781 L 294.984375 150.445312 C 295.828125 153.746094 297.496094 156.808594 299.804688 159.308594 C 302.117188 161.808594 305.042969 163.710938 308.261719 164.8125 C 308.335938 164.839844 308.382812 164.90625 308.382812 164.980469 C 308.382812 165.054688 308.335938 165.125 308.261719 165.148438 C 305.039062 166.25 302.117188 168.152344 299.804688 170.652344 C 297.496094 173.152344 295.828125 176.214844 294.984375 179.515625 L 294.625 180.910156 C 294.605469 180.988281 294.535156 181.042969 294.453125 181.042969 Z M 281.230469 164.980469 C 284.324219 166.121094 287.125 167.992188 289.363281 170.414062 C 291.714844 172.957031 293.410156 176.074219 294.269531 179.425781 L 294.453125 180.152344 L 294.640625 179.425781 C 295.5 176.074219 297.195312 172.957031 299.546875 170.414062 C 301.785156 167.992188 304.585938 166.121094 307.679688 164.980469 C 304.585938 163.84375 301.785156 161.972656 299.546875 159.550781 C 297.195312 157.007812 295.5 153.890625 294.640625 150.535156 L 294.453125 149.808594 L 294.269531 150.535156 C 293.410156 153.890625 291.714844 157.007812 289.363281 159.550781 C 287.125 161.972656 284.324219 163.84375 281.230469 164.980469 Z M 281.230469 164.980469 " fill-opacity="1" fill-rule="nonzero"/></g><g clip-path="url(#9a17f39d5a)"><path fill="#000000" d="M 294.457031 152.539062 L 294.710938 153.527344 C 295.9375 158.320312 299.5 162.171875 304.179688 163.773438 C 299.5 165.371094 295.9375 169.222656 294.710938 174.015625 L 294.457031 175.003906 L 294.207031 174.015625 C 292.980469 169.222656 289.417969 165.371094 284.738281 163.773438 C 289.417969 162.171875 292.980469 158.320312 294.207031 153.527344 Z M 294.457031 152.539062 " fill-opacity="1" fill-rule="nonzero"/><path fill="#000000" d="M 294.457031 175.128906 C 294.402344 175.128906 294.351562 175.089844 294.335938 175.03125 L 294.085938 174.046875 C 293.488281 171.714844 292.308594 169.546875 290.675781 167.78125 C 289.039062 166.011719 286.972656 164.667969 284.695312 163.890625 C 284.644531 163.871094 284.613281 163.824219 284.613281 163.769531 C 284.613281 163.71875 284.644531 163.671875 284.695312 163.652344 C 286.972656 162.875 289.042969 161.53125 290.675781 159.761719 C 292.308594 157.992188 293.488281 155.828125 294.085938 153.496094 L 294.335938 152.507812 C 294.351562 152.453125 294.402344 152.414062 294.457031 152.414062 C 294.515625 152.414062 294.566406 152.453125 294.578125 152.507812 L 294.832031 153.496094 C 295.429688 155.828125 296.609375 157.992188 298.242188 159.761719 C 299.875 161.527344 301.945312 162.875 304.222656 163.652344 C 304.273438 163.671875 304.304688 163.71875 304.304688 163.769531 C 304.304688 163.824219 304.273438 163.871094 304.222656 163.890625 C 301.941406 164.667969 299.875 166.011719 298.242188 167.78125 C 296.609375 169.546875 295.429688 171.714844 294.832031 174.046875 L 294.578125 175.03125 C 294.566406 175.089844 294.515625 175.128906 294.457031 175.128906 Z M 285.109375 163.773438 C 287.296875 164.578125 289.277344 165.898438 290.859375 167.613281 C 292.519531 169.410156 293.71875 171.613281 294.328125 173.984375 L 294.457031 174.5 L 294.589844 173.984375 C 295.199219 171.613281 296.398438 169.410156 298.058594 167.613281 C 299.640625 165.898438 301.621094 164.578125 303.808594 163.773438 C 301.621094 162.964844 299.640625 161.644531 298.058594 159.929688 C 296.398438 158.132812 295.199219 155.929688 294.589844 153.558594 L 294.457031 153.042969 L 294.328125 153.558594 C 293.71875 155.929688 292.519531 158.132812 290.859375 159.929688 C 289.277344 161.644531 287.292969 162.964844 285.109375 163.773438 Z M 285.109375 163.773438 " fill-opacity="1" fill-rule="nonzero"/></g></svg>